<svg xmlns="http://www.w3.org/2000/svg" viewBox="0 0 155.01544 110.74463"><defs><style>.cls-1{fill:#fce9bf;}</style></defs><title>message_sent</title><g id="Layer_2" data-name="Layer 2"><g id="Layer_1-2" data-name="Layer 1"><polygon class="cls-1" points="67.398 53.923 125.298 8.981 122.375 5.216 65.985 48.986 10.148 5.02 7.2 8.765 65.566 54.723 65.867 55.112 65.964 55.037 66.308 55.308 67.398 53.923"/><path class="cls-1" d="M101.91937,84.36035H9.37335V8.33185H121.85382V56.407a23.00249,23.00249,0,0,1,7.98474.56354V0H0V93.38654H106.25116A22.82439,22.82439,0,0,1,101.91937,84.36035Z"/><path class="cls-1" d="M106.80347,77.10394,121.8279,92.12841l32.82878-32.1007c.52948-3.11081-.24024-4.00842-3.905-3.5741L122.35739,85.37733l-11.8475-12.11225C107.90869,73.21112,106.6883,74.291,106.80347,77.10394Z"/><path class="cls-1" d="M147.97656,59.28046l-5.68,5.786-.13043-.1557a22.97107,22.97107,0,1,1-.6803-.812l-.13934-.16632,5.82818-5.49963a1.81217,1.81217,0,0,1,.301.24872,31.28882,31.28882,0,1,0,.501.599Z"/></g></g></svg>