<svg xmlns="http://www.w3.org/2000/svg" viewBox="0 0 171.83 125.75"><title>Layer 2</title><g id="Layer_2" data-name="Layer 2"><g id="Layer_2-2" data-name="Layer 2"><path d="M7.84,0H163.31a2.31,2.31,0,0,1,2.31,2.31V5.5a.25.25,0,0,1-.25.25H6.88a.25.25,0,0,1-.25-.25V1.22A1.22,1.22,0,0,1,7.84,0Z"/><path d="M8.25,0h2.58a.29.29,0,0,1,.29.29V108.21a.29.29,0,0,1-.29.29H6.92a.29.29,0,0,1-.29-.29V1.63A1.63,1.63,0,0,1,8.25,0Z"/><path d="M162.75,1.75h2.58a.29.29,0,0,1,.29.29V110a.29.29,0,0,1-.29.29h-3.92a.29.29,0,0,1-.29-.29V3.38A1.63,1.63,0,0,1,162.75,1.75Z"/><polygon points="0 108.53 22.69 108.21 22.69 113.81 6.63 113.81 6.63 120.41 22.69 120.41 22.69 125.75 0 125.75 0 108.53"/><path d="M26.73,58.31h1.73a0,0,0,0,1,0,0v62a.1.1,0,0,1-.1.1H22.79a.1.1,0,0,1-.1-.1v-58a4,4,0,0,1,4-4Z"/><path d="M26.69,58.31H63.88a0,0,0,0,1,0,0v5.06a0,0,0,0,1,0,0H26a0,0,0,0,1,0,0V59A.69.69,0,0,1,26.69,58.31Z"/><path d="M42.4,56.81h6.35a.94.94,0,0,1,.94.94v.56a0,0,0,0,1,0,0h-8a0,0,0,0,1,0,0v-.79A.71.71,0,0,1,42.4,56.81Z"/><path d="M45.41,22.94A17.64,17.64,0,0,0,27.56,40.38a17.85,17.85,0,0,0,35.69,0A17.64,17.64,0,0,0,45.41,22.94Zm0,32.06c-7.62,0-13.8-6.51-13.8-14.53s6.18-14.53,13.8-14.53S59.2,32.44,59.2,40.47,53,55,45.41,55Z"/><path d="M22.69,120.31H171.83a0,0,0,0,1,0,0v4.29a1.15,1.15,0,0,1-1.15,1.15h-148a0,0,0,0,1,0,0v-5.44A0,0,0,0,1,22.69,120.31Z"/><path d="M166.88,108.92H170a1.83,1.83,0,0,1,1.83,1.83v9.56a0,0,0,0,1,0,0h-5a0,0,0,0,1,0,0v-11.4A0,0,0,0,1,166.88,108.92Z"/><rect x="68.13" y="108.92" width="98.75" height="5.7"/><path d="M64.57,78.92h2.68a.87.87,0,0,1,.87.87v40.53a0,0,0,0,1,0,0H63.25a0,0,0,0,1,0,0V80.24A1.32,1.32,0,0,1,64.57,78.92Z"/><path d="M65.4,82.83H86.81a0,0,0,0,1,0,0v3a1.53,1.53,0,0,1-1.53,1.53H65.4a0,0,0,0,1,0,0V82.83A0,0,0,0,1,65.4,82.83Z" transform="translate(37.83 -22.46) rotate(22.22)"/><path d="M92.85,64.19h3.88a0,0,0,0,1,0,0V92.75a1.94,1.94,0,0,1-1.94,1.94H91a0,0,0,0,1,0,0V66.06A1.87,1.87,0,0,1,92.85,64.19Z" transform="translate(90.35 -43.47) rotate(48.12)"/><path d="M103.4,67.92h9.79a0,0,0,0,1,0,0v3.34a2,2,0,0,1-2,2h-9.06a0,0,0,0,1,0,0V69.18A1.26,1.26,0,0,1,103.4,67.92Z"/><path d="M107.38,50h2.11a3.71,3.71,0,0,1,3.71,3.71V68.08a0,0,0,0,1,0,0h-5.82a0,0,0,0,1,0,0V50A0,0,0,0,1,107.38,50Z"/><path d="M100.55,50h9.14a0,0,0,0,1,0,0v6.38a0,0,0,0,1,0,0H98a0,0,0,0,1,0,0V52.52A2.52,2.52,0,0,1,100.55,50Z"/><path d="M106.55,38.61h1.91a1.46,1.46,0,0,1,1.46,1.46V50.6a0,0,0,0,1,0,0h-5a0,0,0,0,1,0,0V40.22A1.61,1.61,0,0,1,106.55,38.61Z" transform="translate(10.76 -20.09) rotate(11.24)"/><path d="M115.52,38.38h22.12a3.17,3.17,0,0,1,3.17,3.17v1.22a3,3,0,0,1-3,3H115.5a3,3,0,0,1-3-3V41.42A3,3,0,0,1,115.52,38.38Z"/><path d="M60.47,64.55h25a.41.41,0,0,1,.41.41v2.85a2.26,2.26,0,0,1-2.26,2.26H60.47a.41.41,0,0,1-.41-.41V65a.41.41,0,0,1,.41-.41Z" transform="matrix(0.85, 0.52, -0.52, 0.85, 46.09, -28.25)"/><path d="M80.35,63.05h20.57a2.71,2.71,0,0,1,2.71,2.71v1A2.26,2.26,0,0,1,101.36,69H78a.41.41,0,0,1-.41-.41v-2.8a2.73,2.73,0,0,1,2.73-2.73Z" transform="translate(202.17 54.67) rotate(138.12)"/><path d="M99.27,54.41H101a.16.16,0,0,1,.16.16v4.9a.66.66,0,0,1-.66.66H99.27a.16.16,0,0,1-.16-.16V54.56A.16.16,0,0,1,99.27,54.41Z"/></g></g></svg>